<svg width="86" height="92" viewBox="0 0 86 92" fill="none" xmlns="http://www.w3.org/2000/svg">
<path d="M77.3333 0.666504H9.33331C4.65831 0.666504 0.833313 4.4915 0.833313 9.1665V82.8332C0.833313 87.5082 4.65831 91.3332 9.33331 91.3332H77.3333C82.0083 91.3332 85.8333 87.5082 85.8333 82.8332V9.1665C85.8333 4.4915 82.0083 0.666504 77.3333 0.666504ZM74.5 79.9998H12.1666V11.9998H74.5V79.9998ZM23.5 51.6665H63.1666V57.3332H23.5V51.6665ZM23.5 62.9998H63.1666V68.6665H23.5V62.9998ZM29.1666 26.1665C29.167 25.0499 29.3873 23.9443 29.815 22.9128C30.2426 21.8814 30.8692 20.9442 31.6591 20.1549C32.4489 19.3656 33.3864 18.7396 34.4182 18.3127C35.45 17.8857 36.5557 17.6661 37.6723 17.6665C38.7889 17.6669 39.8945 17.8872 40.926 18.3148C41.9575 18.7425 42.8946 19.3691 43.6839 20.1589C44.4732 20.9488 45.0992 21.8863 45.5262 22.9181C45.9531 23.9498 46.1727 25.0556 46.1723 26.1722C46.1716 28.4273 45.275 30.5897 43.6799 32.1838C42.0848 33.7778 39.9217 34.6729 37.6666 34.6722C35.4116 34.6714 33.2491 33.7749 31.6551 32.1797C30.061 30.5846 29.1659 28.4216 29.1666 26.1665ZM43.3333 34.6665H32C27.325 34.6665 23.5 37.2165 23.5 40.3332V45.9998H51.8333V40.3332C51.8333 37.2165 48.0083 34.6665 43.3333 34.6665Z" fill="white"/>
</svg>
