<svg width="86" height="86" viewBox="0 0 86 86" fill="none" xmlns="http://www.w3.org/2000/svg">
<path d="M35.8887 19.2964H57.2221V24.0371H35.8887V19.2964Z" fill="#2E3192"/>
<path d="M35.8887 28.7778H57.2221V33.5186H35.8887V28.7778Z" fill="#2E3192"/>
<path d="M35.8887 38.2593H57.2221V43H35.8887V38.2593Z" fill="#2E3192"/>
<path d="M35.8887 47.7412H57.2221V52.482H35.8887V47.7412Z" fill="#2E3192"/>
<path d="M35.8887 57.2227H57.2221V61.9634H35.8887V57.2227Z" fill="#2E3192"/>
<path d="M26.4075 19.2964H31.1482V24.0371H26.4075V19.2964Z" fill="#2E3192"/>
<path d="M26.4075 28.7778H31.1482V33.5186H26.4075V28.7778Z" fill="#2E3192"/>
<path d="M26.4075 38.2593H31.1482V43H26.4075V38.2593Z" fill="#2E3192"/>
<path d="M26.4075 47.7412H31.1482V52.482H26.4075V47.7412Z" fill="#2E3192"/>
<path d="M26.4075 57.2227H31.1482V61.9634H26.4075V57.2227Z" fill="#2E3192"/>
<path d="M66.7036 5.07422H19.2962C18.0388 5.07422 16.833 5.57369 15.944 6.46275C15.0549 7.35181 14.5554 8.55764 14.5554 9.81496V76.1853C14.5554 77.4426 15.0549 78.6485 15.944 79.5375C16.833 80.4266 18.0388 80.9261 19.2962 80.9261H66.7036C67.9609 80.9261 69.1667 80.4266 70.0558 79.5375C70.9448 78.6485 71.4443 77.4426 71.4443 76.1853V9.81496C71.4443 8.55764 70.9448 7.35181 70.0558 6.46275C69.1667 5.57369 67.9609 5.07422 66.7036 5.07422ZM66.7036 76.1853H19.2962V9.81496H66.7036V76.1853Z" fill="#2E3192"/>
</svg>
