<svg width="22" height="20" viewBox="0 0 22 20" fill="none" xmlns="http://www.w3.org/2000/svg">
<path d="M1.99902 0L19.999 18M8.8433 6.91364C8.32066 7.4536 7.99902 8.1892 7.99902 9C7.99902 10.6569 9.3422 12 10.999 12C11.8215 12 12.5667 11.669 13.1086 11.133M5.49902 3.64715C3.59972 4.90034 2.15305 6.78394 1.45703 9C2.73128 13.0571 6.52159 16 10.9992 16C12.9881 16 14.8414 15.4194 16.3988 14.4184M9.999 2.04939C10.328 2.01673 10.6617 2 10.9992 2C15.4769 2 19.2672 4.94291 20.5414 9C20.2607 9.894 19.8577 10.7338 19.3522 11.5" stroke="black" stroke-width="2.5" stroke-linecap="round" stroke-linejoin="round"/>
</svg>
