<svg width="76" height="62" viewBox="0 0 76 62" fill="none" xmlns="http://www.w3.org/2000/svg">
<path d="M55.9445 59.4445H73.7223V52.3334C73.7222 50.1167 73.0314 47.955 71.7459 46.149C70.4605 44.343 68.6443 42.9823 66.5499 42.2561C64.4554 41.5299 62.1868 41.4743 60.0593 42.0971C57.9317 42.7198 56.0511 43.9899 54.6788 45.7308L55.9445 59.4445ZM55.9445 59.4445H20.389H55.9445ZM55.9445 59.4445V52.3334C55.9445 50.001 55.4965 47.7717 54.6788 45.7308L55.9445 59.4445ZM20.389 59.4445H2.61121V52.3334C2.61137 50.1167 3.30218 47.955 4.5876 46.149C5.87303 44.343 7.6892 42.9823 9.78365 42.2561C11.8781 41.5299 14.1468 41.4743 16.2743 42.0971C18.4018 42.7198 20.2824 43.9899 21.6548 45.7308L20.389 59.4445ZM20.389 59.4445V52.3334C20.389 50.001 20.837 47.7717 21.6548 45.7308L20.389 59.4445ZM21.6548 45.7308C22.9751 42.4311 25.2539 39.6026 28.197 37.6103C31.1401 35.618 34.6127 34.5532 38.1668 34.5532C41.7208 34.5532 45.1934 35.618 48.1365 37.6103C51.0797 39.6026 53.3584 42.4311 54.6788 45.7308H21.6548ZM48.8334 13.2223C48.8334 16.0513 47.7096 18.7644 45.7092 20.7648C43.7089 22.7652 40.9957 23.889 38.1668 23.889C35.3378 23.889 32.6247 22.7652 30.6243 20.7648C28.6239 18.7644 27.5001 16.0513 27.5001 13.2223C27.5001 10.3934 28.6239 7.68025 30.6243 5.67986C32.6247 3.67947 35.3378 2.55566 38.1668 2.55566C40.9957 2.55566 43.7089 3.67947 45.7092 5.67986C47.7096 7.68025 48.8334 10.3934 48.8334 13.2223V13.2223ZM70.1668 23.889C70.1668 25.775 69.4176 27.5837 68.084 28.9173C66.7504 30.2509 64.9416 31.0001 63.0557 31.0001C61.1697 31.0001 59.3609 30.2509 58.0273 28.9173C56.6938 27.5837 55.9445 25.775 55.9445 23.889C55.9445 22.003 56.6938 20.1943 58.0273 18.8607C59.3609 17.5271 61.1697 16.7779 63.0557 16.7779C64.9416 16.7779 66.7504 17.5271 68.084 18.8607C69.4176 20.1943 70.1668 22.003 70.1668 23.889ZM20.389 23.889C20.389 25.775 19.6398 27.5837 18.3062 28.9173C16.9726 30.2509 15.1639 31.0001 13.2779 31.0001C11.3919 31.0001 9.58315 30.2509 8.24956 28.9173C6.91597 27.5837 6.16676 25.775 6.16676 23.889C6.16676 22.003 6.91597 20.1943 8.24956 18.8607C9.58315 17.5271 11.3919 16.7779 13.2779 16.7779C15.1639 16.7779 16.9726 17.5271 18.3062 18.8607C19.6398 20.1943 20.389 22.003 20.389 23.889Z" stroke="#2E3192" stroke-width="4" stroke-linecap="round" stroke-linejoin="round"/>
</svg>
