<svg width="72" height="76" viewBox="0 0 72 76" fill="none" xmlns="http://www.w3.org/2000/svg">
<path d="M36.0417 27.8836C33.55 27.8836 31.2167 28.8502 29.45 30.6169C27.6917 32.3836 26.7167 34.7169 26.7167 37.2086C26.7167 39.7002 27.6917 42.0336 29.45 43.8002C31.2167 45.5586 33.55 46.5336 36.0417 46.5336C38.5333 46.5336 40.8667 45.5586 42.6333 43.8002C44.3917 42.0336 45.3667 39.7002 45.3667 37.2086C45.3667 34.7169 44.3917 32.3836 42.6333 30.6169C41.7704 29.7474 40.7434 29.058 39.6118 28.5887C38.4802 28.1195 37.2667 27.8798 36.0417 27.8836ZM70.4 47.5086L64.95 42.8502C65.2083 41.2669 65.3417 39.6502 65.3417 38.0419C65.3417 36.4336 65.2083 34.8086 64.95 33.2336L70.4 28.5752C70.8117 28.2228 71.1064 27.7534 71.2448 27.2294C71.3832 26.7054 71.3589 26.1517 71.175 25.6419L71.1 25.4252C69.6001 21.231 67.3527 17.3432 64.4667 13.9502L64.3167 13.7752C63.9662 13.3632 63.4991 13.0669 62.977 12.9256C62.4548 12.7843 61.9021 12.8045 61.3917 12.9836L54.625 15.3919C52.125 13.3419 49.3417 11.7252 46.325 10.6002L45.0167 3.52523C44.918 2.99225 44.6594 2.50191 44.2754 2.11938C43.8914 1.73684 43.4 1.4802 42.8667 1.38356L42.6417 1.34189C38.3083 0.558561 33.7417 0.558561 29.4083 1.34189L29.1833 1.38356C28.65 1.4802 28.1586 1.73684 27.7746 2.11938C27.3906 2.50191 27.132 2.99225 27.0333 3.52523L25.7167 10.6336C22.7286 11.7675 19.945 13.3803 17.475 15.4086L10.6583 12.9836C10.148 12.8031 9.59492 12.7822 9.07246 12.9236C8.54999 13.065 8.08293 13.362 7.73333 13.7752L7.58333 13.9502C4.70244 17.3468 2.45559 21.2336 0.95 25.4252L0.875 25.6419C0.5 26.6836 0.808333 27.8502 1.65 28.5752L7.16667 33.2836C6.90833 34.8502 6.78333 36.4502 6.78333 38.0336C6.78333 39.6336 6.90833 41.2336 7.16667 42.7836L1.66667 47.4919C1.25496 47.8443 0.960303 48.3138 0.821866 48.8377C0.683429 49.3617 0.707774 49.9154 0.891666 50.4252L0.966666 50.6419C2.475 54.8336 4.7 58.7086 7.6 62.1169L7.75 62.2919C8.10045 62.704 8.56753 63.0002 9.08968 63.1415C9.61184 63.2828 10.1646 63.2626 10.675 63.0836L17.4917 60.6586C19.975 62.7002 22.7417 64.3169 25.7333 65.4336L27.05 72.5419C27.1487 73.0749 27.4073 73.5652 27.7913 73.9478C28.1753 74.3303 28.6666 74.5869 29.2 74.6836L29.425 74.7252C33.801 75.5128 38.2824 75.5128 42.6583 74.7252L42.8833 74.6836C43.4167 74.5869 43.908 74.3303 44.2921 73.9478C44.6761 73.5652 44.9346 73.0749 45.0333 72.5419L46.3417 65.4669C49.3583 64.3336 52.1417 62.7252 54.6417 60.6752L61.4083 63.0836C61.9186 63.264 62.4717 63.285 62.9942 63.1436C63.5167 63.0022 63.9837 62.7051 64.3333 62.2919L64.4833 62.1169C67.3833 58.6919 69.6083 54.8336 71.1167 50.6419L71.1917 50.4252C71.55 49.3919 71.2417 48.2336 70.4 47.5086ZM36.0417 51.8586C27.95 51.8586 21.3917 45.3002 21.3917 37.2086C21.3917 29.1169 27.95 22.5586 36.0417 22.5586C44.1333 22.5586 50.6917 29.1169 50.6917 37.2086C50.6917 45.3002 44.1333 51.8586 36.0417 51.8586Z" fill="#2E3192"/>
</svg>
