<svg width="22" height="28" viewBox="0 0 22 28" fill="none" xmlns="http://www.w3.org/2000/svg">
<path d="M0.333336 14C0.333336 14.3536 0.473812 14.6927 0.72386 14.9428C0.973909 15.1928 1.31305 15.3333 1.66667 15.3333H11.7867L8.72 18.3866C8.59503 18.5106 8.49584 18.658 8.42815 18.8205C8.36046 18.983 8.3256 19.1573 8.3256 19.3333C8.3256 19.5093 8.36046 19.6836 8.42815 19.8461C8.49584 20.0085 8.59503 20.156 8.72 20.28C8.84395 20.4049 8.99142 20.5041 9.1539 20.5718C9.31638 20.6395 9.49065 20.6744 9.66667 20.6744C9.84268 20.6744 10.017 20.6395 10.1794 20.5718C10.3419 20.5041 10.4894 20.4049 10.6133 20.28L15.9467 14.9466C16.0681 14.8198 16.1632 14.6703 16.2267 14.5066C16.36 14.182 16.36 13.8179 16.2267 13.4933C16.1632 13.3296 16.0681 13.1801 15.9467 13.0533L10.6133 7.71996C10.489 7.59564 10.3414 7.49703 10.179 7.42975C10.0166 7.36247 9.84248 7.32784 9.66667 7.32784C9.49086 7.32784 9.31676 7.36247 9.15434 7.42975C8.99191 7.49703 8.84432 7.59564 8.72 7.71996C8.59568 7.84428 8.49707 7.99186 8.42979 8.15429C8.36251 8.31672 8.32788 8.49081 8.32788 8.66663C8.32788 8.84244 8.36251 9.01653 8.42979 9.17896C8.49707 9.34139 8.59568 9.48897 8.72 9.61329L11.7867 12.6666H1.66667C1.31305 12.6666 0.973909 12.8071 0.72386 13.0572C0.473812 13.3072 0.333336 13.6463 0.333336 14ZM17.6667 0.666626H4.33334C3.27247 0.666626 2.25505 1.08805 1.50491 1.8382C0.754763 2.58834 0.333336 3.60576 0.333336 4.66663V8.66663C0.333336 9.02025 0.473812 9.35939 0.72386 9.60944C0.973909 9.85948 1.31305 9.99996 1.66667 9.99996C2.02029 9.99996 2.35943 9.85948 2.60948 9.60944C2.85953 9.35939 3 9.02025 3 8.66663V4.66663C3 4.313 3.14048 3.97387 3.39053 3.72382C3.64058 3.47377 3.97971 3.33329 4.33334 3.33329H17.6667C18.0203 3.33329 18.3594 3.47377 18.6095 3.72382C18.8595 3.97387 19 4.313 19 4.66663V23.3333C19 23.6869 18.8595 24.0261 18.6095 24.2761C18.3594 24.5262 18.0203 24.6666 17.6667 24.6666H4.33334C3.97971 24.6666 3.64058 24.5262 3.39053 24.2761C3.14048 24.0261 3 23.6869 3 23.3333V19.3333C3 18.9797 2.85953 18.6405 2.60948 18.3905C2.35943 18.1404 2.02029 18 1.66667 18C1.31305 18 0.973909 18.1404 0.72386 18.3905C0.473812 18.6405 0.333336 18.9797 0.333336 19.3333V23.3333C0.333336 24.3942 0.754763 25.4116 1.50491 26.1617C2.25505 26.9119 3.27247 27.3333 4.33334 27.3333H17.6667C18.7275 27.3333 19.7449 26.9119 20.4951 26.1617C21.2452 25.4116 21.6667 24.3942 21.6667 23.3333V4.66663C21.6667 3.60576 21.2452 2.58834 20.4951 1.8382C19.7449 1.08805 18.7275 0.666626 17.6667 0.666626Z" fill="#E05905"/>
</svg>
