<svg width="49" height="49" viewBox="0 0 49 49" fill="none" xmlns="http://www.w3.org/2000/svg">
<g clip-path="url(#clip0_423_2802)">
<path d="M48.5 24.5C48.5 11.2452 37.7548 0.5 24.5 0.5C11.2452 0.5 0.5 11.2452 0.5 24.5C0.5 37.7548 11.2452 48.5 24.5 48.5C37.7548 48.5 48.5 37.7548 48.5 24.5Z" fill="#E05905"/>
<path d="M24.6818 34.7117C29.2005 34.7117 32.8636 32.4731 32.8636 29.7117C32.8636 26.9502 29.2005 24.7117 24.6818 24.7117C20.1631 24.7117 16.5 26.9502 16.5 29.7117C16.5 32.4731 20.1631 34.7117 24.6818 34.7117Z" fill="white"/>
<path d="M24.572 27.4664C26.7192 27.4664 28.4598 25.9864 28.4598 24.1607C28.4598 22.335 26.7192 20.855 24.572 20.855C22.4248 20.855 20.6841 22.335 20.6841 24.1607C20.6841 25.9864 22.4248 27.4664 24.572 27.4664Z" fill="#E05905"/>
<path d="M30.4002 27.5834H18.9634C17.6029 27.5834 16.5 28.6863 16.5 30.0468V33.52C16.5 34.8805 17.6029 35.9834 18.9634 35.9834H30.4002C31.7607 35.9834 32.8636 34.8805 32.8636 33.52V30.0468C32.8636 28.6863 31.7607 27.5834 30.4002 27.5834Z" fill="white"/>
<path d="M32.8636 29.7117H16.5V33.7244H32.8636V29.7117Z" fill="white"/>
<path d="M30.4091 36.5C32.6685 36.5 34.5001 34.7091 34.5001 32.5C34.5001 30.2909 32.6685 28.5 30.4091 28.5C28.1498 28.5 26.3182 30.2909 26.3182 32.5C26.3182 34.7091 28.1498 36.5 30.4091 36.5Z" fill="#E1E1E1"/>
<path d="M30.4091 35.7C32.2166 35.7 33.6819 34.2674 33.6819 32.5C33.6819 30.7327 32.2166 29.3 30.4091 29.3C28.6017 29.3 27.1364 30.7327 27.1364 32.5C27.1364 34.2674 28.6017 35.7 30.4091 35.7Z" fill="#E05905"/>
<path d="M32.6926 31.8939L29.6694 34.546L30.1616 34.9986L33.1848 32.3465L32.6926 31.8939Z" fill="white"/>
<path d="M30.6262 34.4997L29.0383 33.1859L28.5737 33.6848L30.1616 34.9986L30.6262 34.4997Z" fill="white"/>
<path d="M24.9091 24.5C27.6203 24.5 29.8182 21.8137 29.8182 18.5C29.8182 15.1863 27.6203 12.5 24.9091 12.5C22.1979 12.5 20 15.1863 20 18.5C20 21.8137 22.1979 24.5 24.9091 24.5Z" fill="white"/>
</g>
<defs>
<clipPath id="clip0_423_2802">
<rect width="48" height="48" fill="white" transform="translate(0.5 0.5)"/>
</clipPath>
</defs>
</svg>
